<?xml version="1.0" encoding="utf-8"?>
<!-- Generator: Adobe Illustrator 23.0.3, SVG Export Plug-In . SVG Version: 6.00 Build 0)  -->
<svg version="1.1" id="Layer_1" xmlns="http://www.w3.org/2000/svg" xmlns:xlink="http://www.w3.org/1999/xlink" x="0px" y="0px"
	 viewBox="0 0 792 612" style="enable-background:new 0 0 792 612;" xml:space="preserve">
<style type="text/css">
	.st0{fill:#FFFFFF;}
	.st1{fill-rule:evenodd;clip-rule:evenodd;fill:#EF3C24;}
	.st2{fill-rule:evenodd;clip-rule:evenodd;fill:#7F9C52;}
	.st3{fill:#EF3C24;}
</style>
<g>
	<path class="st0" d="M286.48,374.36c-2.54,5.41-7.57,9.97-11.11,12.69c-0.92-9.53-1.59-24-2.09-37.91l-17.44,4.96
		c-1.51,5.41-2.98,10.37-4.09,14.99c-3.63,14.62-6.67,24.56-11.48,29.24c-5.82,5.57-12.39,4.25-14.57-4.06
		c-3.89-14.62,5.13-37.13,17.23-44.16l8.65-5.96c9.2-28.63,20.66-60.25,27.62-73.85c4.48-6.27,10.14-11.52,14.46-14.5
		C284.08,295.04,281.99,344.37,286.48,374.36z M242.63,357.58c-7.86,4.22-13.23,12.25-13.37,21.63c-0.06,6.99,3.71,9.59,8.98,3.06
		c3.15-4.01,5.01-10.65,7.24-17.51c0.85-2.79,1.63-6.02,2.54-9.12L242.63,357.58z M274.17,301.47
		c-5.15,11.86-9.72,25.58-14.14,39.72l13.01-5.68c-0.11-14.1,0.51-23.7,1.68-33.82L274.17,301.47z"/>
	<path class="st0" d="M334.58,360.98c-5.72,1.84-5.87-11.82-3.63-20.9c1.39-5.54,1.89-10.82,2.76-17.18
		c1.09-7.73-5.13-1.37-6.83,1.99c-3.35,7.01-5.27,13.96-6.39,19.17c0,0-1.03,5.2-3.06,14.99c-3.29,2.24-7.72,4.49-10.08,5.27
		c4.95-27.29,5.58-34.66,5.58-34.66c0.72-7.38-1.42-7.23-4.51-3.53c-3.09,3.7-5.83,10.62-6.56,14.29
		c-1.73,9.75-3.47,15.05-4.8,22.52c-2.75,1.72-7.62,3.74-9.82,4.19l2.56-17.89l6.44-39.54c3.33-1.95,8.75-5.23,11.4-5.45
		l-3.77,18.81l0.22,0.12c3.9-4.55,6.92-11.67,12.66-17.07c6.16-6.06,8.93-2.43,8.31,10.88l0.24,0.26
		c9.41-10.82,13-19.79,18.04-17.67c5.01,1.98,1.34,13.34-0.45,22.65c-2.11,11.44-1.91,16.61-1.85,20.77
		c0.19,6.51,9.43-16.62,12.17-23.54l2.16,2.97C347.76,343.98,339.99,359.18,334.58,360.98z"/>
	<path class="st0" d="M374.64,346.18c-5.09,7.84-9.93,12.98-14.85,11.73c-5.78-1.57-10.11-4.54-10.14-24
		c-0.07-17.53,11.01-36.31,19.01-38.76c5.52-1.81,13.78,2.09,10.4,18.47c-3.49,16.39-10.94,18.32-18.74,20.74
		c-1.29,11.47,5.63,16.01,12.52,7.03c6.97-9.15,10.23-18.96,12.23-26.82l2.33,3.39C384.15,330.15,378.12,340.79,374.64,346.18z
		 M366.56,308.07c-2.22,4.77-4.8,12.11-5.6,21.14c2.99,1.51,8.35-0.72,11-17.88C373.32,301.93,368.43,303.8,366.56,308.07z"/>
	<path class="st0" d="M401.38,345.13c-3.63,7.2-12.95,12.8-12.33,1.72c0.36-7.04,5.3-28.53,7.64-33.17l-7.9,3.92
		c-0.69,0.24-1.19,1.06-2.28,2.1c-0.75-0.19-2.18-0.88-2.18-0.88c0.64-3.51,0.85-4.28,0.78-7.69c-1.07-5.5-1.56-12.71,0.68-17.33
		c2.72-5.58,6.66-7.62,7.4-2.37c0.73,5.25,0.06,6.38-0.1,8.19c1.84-0.11,8.02-2.31,11.92-6.12c1.36,6.05,1.18,12.92,1.18,12.92
		c-7.57,12.2-6.94,24.89-6.29,28.82c0.95,6.11,7.31-12.61,12.41-24.02l2.16,2.97C410.34,325.16,401.38,345.13,401.38,345.13z"/>
	<g>
		<path class="st0" d="M422.21,330.49c-2.77,5.29-4.42,2.99-3.7-5.87c0.52-6.61,3.55-17.44,6.57-32.72
			c-2.14,0.89-6.93,2.75-9.9,5.09c-3.02,10.82-6.15,22.41-6.85,33.65c-0.7,11.99,3.29,20.65,7.79,17.49
			c4.3-3.13,11.53-17.81,16.47-37.07l-2.45-2.04C427.16,318.66,424.98,325.2,422.21,330.49z"/>
	</g>
	<path class="st0" d="M451.48,336.52c-4.89,7.07-10.16,12.12-14.54,10.94c-5.88-1.56-10.43-7.61-10.1-22.97
		c0.33-17.58,10.89-37.19,18.97-39.8c5.44-1.65,11.32,0.65,11.18,13.01c-2.5,1.98-7.11,5.15-9.29,5.75c1.37-7.92-2.11-8.47-4.35-4.6
		c-3.55,6.29-5.25,14.85-6.05,23.88c-1.06,11.59,5.71,17.34,12.68,8.19c6.89-8.98,11.08-21.76,12.55-26.72l2.24,2.81
		C462.18,316.45,455.78,330.43,451.48,336.52z"/>
	<path class="st0" d="M492.44,330.37c-3.19,5.94-5.73,8.38-7.51,8.92c-2.44,0.93-4.41-2.8-5.46-8.9
		c-5.87,12.56-12.66,14.84-17.25,12.21c-4.93-2.88-5.99-19.38-0.55-35.74c5.33-15.75,13.28-24.44,21.61-20.1
		c0.34-1.24,0.52-1.41,0.87-2.65l9.9-2.86c-2.62,9.28-3.85,20.45-4.85,28.02c-1.45,12.54,0.13,17.22,2.66,13.15
		c1.94-3.09,5.35-14.12,8.27-23.45l2.43,2.63C499.38,312.91,495.13,325.24,492.44,330.37z M474.61,296.29
		c-4.14,8.75-7.4,26.74-5.15,32.52c1.82,4.95,6.19,1.52,9.27-5.16c-0.23-4.58-0.15-9.94,0.68-15.11c0.6-4.54,1.41-12.09,2.82-17.48
		C480.13,290.03,477.38,290.26,474.61,296.29z"/>
	<path class="st0" d="M520.88,334.14c-4.87,4.24-9.36-1.37-6.46-16.79c1.85-9.62,3.44-19.65-0.74-14.17
		c-4.28,5.5-8.44,16.34-11.48,29.99c-2.85,2.48-6.16,3.83-8.36,4.28c0,0,2.09-13.82,8.79-56.66c4.06-1.9,8.81-3.31,11.72-3.86
		c-1.05,5.05-3.14,15.15-4.47,21.13l0.34,0.25c3.35-6.26,10.01-16.85,12.96-19.34c9.51-7.86,5.97,5.86,4.5,13.79
		c-1.39,7.77-3.36,18.75-2.65,24.59c0.77,6.28,9.41-16.02,12.23-23.85l2,3.29C535.48,308.77,525.75,329.9,520.88,334.14z"/>
	<path class="st0" d="M567.01,319.99c-3.19,5.94-5.73,8.38-7.51,8.92c-2.44,0.93-4.41-2.8-5.46-8.9
		c-5.87,12.56-12.66,14.84-17.25,12.21c-4.93-2.88-5.99-19.38-0.55-35.74c5.33-15.75,13.28-24.44,21.61-20.1
		c0.34-1.24,0.52-1.41,0.87-2.65l9.9-2.86c-2.62,9.28-3.85,20.45-4.85,28.02c-1.45,12.54,0.13,17.22,2.66,13.15
		c1.94-3.09,5.35-14.12,8.27-23.45l2.43,2.63C573.95,302.52,569.7,314.86,567.01,319.99z M549.19,285.91
		c-4.14,8.75-7.4,26.74-5.15,32.52c1.82,4.95,6.19,1.52,9.27-5.16c-0.23-4.58-0.15-9.94,0.68-15.11c0.6-4.54,1.41-12.09,2.82-17.48
		C554.7,279.64,551.95,279.88,549.19,285.91z"/>
</g>
<g>
	<path class="st0" d="M312.13,273.86l2.61-5.1l0.29,0.01c0.61,2.98,3.68,1.04,3.23-1.63c-0.46-2.79-4.74-0.96-7.11,1.64
		c-1.38,1.53-3.88,5.46-4.99,8.65c-0.78,2.41-1.46,5.01-1.91,7.79c-1.11,7.2,2.22,8.82,6.09,7.03c3.05-1.4,5.61-4.85,7.41-7.75
		l0.77,0.57c-2.5,4.31-5.44,7.26-8.34,8.89c-7.24,4.01-12.54,1.88-12.66-3.97c-0.06-3.92,1.18-8.4,3.19-12.61
		c1.82-3.77,5.1-8.05,6.95-9.88c5.35-5.27,12.09-5.55,12.45-1.87C320.5,269.59,316.05,277.27,312.13,273.86z"/>
	<path class="st0" d="M330.12,287.1c-1.41,1.7-2.48,2.4-3.2,2.57c-1,0.29-1.7-0.74-1.99-2.44c-2.63,3.58-5.39,4.28-7.17,3.59
		c-1.91-0.76-1.97-5.38,0.57-10.02c2.48-4.47,5.85-6.98,9.08-5.84c0.17-0.35,0.24-0.4,0.41-0.75l4.02-0.9
		c-1.25,2.63-1.99,5.77-2.56,7.91c-0.85,3.53-0.33,4.83,0.77,3.66c0.84-0.89,2.45-4.01,3.82-6.66l0.91,0.72
		C333.28,282.14,331.31,285.64,330.12,287.1z M323.75,277.71c-1.85,2.49-3.55,7.57-2.78,9.17c0.62,1.37,2.44,0.37,3.82-1.53
		c0.01-1.28,0.16-2.79,0.6-4.24c0.34-1.28,0.83-3.4,1.51-4.93C326.09,275.9,324.98,275.99,323.75,277.71z"/>
	<path class="st0" d="M345.84,265.05c0.24-2.09-1.02-2.6-2.85,0.3c-1.28,2.05-2.5,5.26-3.62,8.65c2.96-1.1,4.58-1.38,4.58-1.38
		c-0.3,1.28-0.63,2.35-1.68,3.88c-1.42,0.21-2.71,0.45-3.92,0.68c-1.05,3.31-2.06,6.57-3.11,9.83c-1.14,3.52-1.62,5.03-2.84,6.95
		c-1.08,1.7-3.23,3.03-5.39,1.19l-1.59-3.57l0.07-0.13c0.89,0.84,2.98,1.46,4.39-0.24c1.3-1.56,2.74-8.14,3.38-10.36
		c0.26-0.9,0.46-1.33,0.83-2.66c-0.68,0.21-1.32,0.37-1.95,0.57c0-0.37,0.11-1.13,0.29-1.73c0.82-0.43,1.6-0.77,2.38-1.16
		c1.57-5.1,2.61-8.49,5.08-11.68c3.54-4.56,6.48-4.79,8.14-4.04c0.74,0.32,1.48,1.64,1.3,3.27
		C348.55,263.86,346.96,264.75,345.84,265.05z"/>
	<path class="st0" d="M351.84,284.32c-2.21,2.25-4.26,3.73-6.19,3.43c-2.28-0.39-3.94-1.18-3.53-6.64
		c0.36-4.92,5.2-10.29,8.46-11.05c2.25-0.56,5.46,0.46,3.75,5.08c-1.75,4.63-4.78,5.24-7.95,6c-0.77,3.23,1.9,4.44,4.85,1.85
		c2.99-2.63,4.51-5.42,5.48-7.64l0.86,0.93C355.99,279.73,353.35,282.77,351.84,284.32z M349.44,273.7
		c-0.99,1.36-2.19,3.44-2.71,5.98c1.16,0.4,3.35-0.28,4.79-5.12C352.28,271.92,350.29,272.49,349.44,273.7z"/>
</g>
<g>
	<path class="st1" d="M403.56,250.82c2.98-1.34,6.33-1.82,9.5-1.12c-9.05,0.48-15.41,7.74-13.7,17.25
		c-1.62-13.98,15.53-21.67,25.07-11.28c-0.69-1.02-1.54-1.92-2.43-2.7c1.95-3.08,5.24-5.27,8.9-5.7c5.12-0.61,10.34,2.15,12.81,7.22
		c1.85,3.8,2.32,8,1.62,12.04c-3.73,21.69-37.33,28.85-48.52,9.26c-2.89-5.06-3.83-11.2-1.65-16.47
		C396.73,255.5,399.82,252.5,403.56,250.82L403.56,250.82z M421.31,244.04c2.09-0.78,4.39-1.03,6.62-0.84
		c-0.17,0.26-0.35,0.5-0.54,0.74c-1.16,1.41-2.85,2.48-4.84,2.93c-0.43,0.09-0.87,0.16-1.32,0.19
		C421.17,245.92,421.19,244.94,421.31,244.04L421.31,244.04z M429.65,243.44c2.67,0.44,5.47,1.88,7.06,3.54
		c-3.18-1.11-6.71-0.9-9.76,0.42c0.3-0.28,0.59-0.57,0.86-0.89C428.6,245.57,429.24,244.54,429.65,243.44L429.65,243.44z"/>
	<path class="st2" d="M399.72,245.27c0.27-3.37,3.19-4.11,5.8-2.55c1.01,0.6,1.92,1.44,2.74,2.15c1.08,0.94,2.21,1.94,3.33,2.79
		c3.35,2.53,6.83,2.12,9.76,4.25c1.4-2.18,4.35-3.36,6.24-5.59c2-2.35,3.04-5.37,1.63-8.51c1.03,4.6-2.83,9.29-8.26,9.54
		c-0.24-4.07,0.39-6.11,3.08-9.63c0.81-1.06,1.58-2.22,1.7-3.45c0.08-0.82-0.13-1.67-0.82-2.16c-0.31-0.22-0.71-0.36-1.25-0.39
		c2.63,0.84,0.8,3.21-0.28,4.41c-2.12,2.35-4.53,4.65-4.99,9.26c-0.57-2.37-1.65-4.79-3.31-6.88c-0.42-0.53-0.88-1.16-1.61-1.21
		c-0.42-0.03-0.88,0.12-1.35,0.43c-0.48,0.32-1.47,1.25-1.54,2.39c0.22-0.97,0.86-1.68,1.58-2.13c1.63-1.04,2.62,0.14,0.99,1.37
		c-0.69,0.52-1.76,0.97-2.37,0.98c0.63,0.13,0.96,0.28,1.65,0.64c2.72,1.44,4.61,4.66,4.37,7.46c-0.11-0.77-0.25-1.27-0.46-1.54
		c-1.16,0.24-2.77-0.43-4.23-1.42c-2.01-1.37-4.36-3.55-6.89-4.25c-1.67-0.46-3.77-0.27-4.85,1.25
		C399.9,243.15,399.65,244.07,399.72,245.27L399.72,245.27z M398.83,248.81c3.48,2.63,8.62-1.31,14.12,0.05
		c-1.03-0.55-1.92-1.24-2.81-1.99C408.08,246.94,401.97,250.23,398.83,248.81L398.83,248.81z"/>
</g>
<g>
	<path class="st3" d="M295.27,372.78l1.35-0.17l-0.06,3.9l4.31-0.56l0.07-3.9l1.32-0.17l-0.19,10.06l-1.3,0.17l0.09-4.83l-4.31,0.56
		l-0.08,4.83l-1.37,0.18L295.27,372.78z"/>
	<path class="st3" d="M307.08,376.38c-0.19-1.5,0.18-2.84,1.13-4.03c0.95-1.18,2.21-1.87,3.79-2.08c1.46-0.19,2.76,0.14,3.88,0.99
		c1.13,0.85,1.78,1.98,1.96,3.4c0.2,1.53-0.17,2.89-1.11,4.09c-0.94,1.2-2.18,1.9-3.72,2.1c-1.5,0.19-2.82-0.13-3.95-0.99
		C307.93,379.02,307.27,377.85,307.08,376.38z M316.42,374.97c-0.14-1.09-0.62-1.94-1.43-2.55c-0.81-0.62-1.77-0.85-2.87-0.71
		c-1.16,0.15-2.09,0.66-2.8,1.52c-0.71,0.86-0.99,1.84-0.85,2.93c0.14,1.1,0.63,1.96,1.45,2.58c0.82,0.62,1.8,0.85,2.92,0.71
		c1.13-0.15,2.05-0.65,2.74-1.53C316.29,377.04,316.57,376.06,316.42,374.97z"/>
	<path class="st3" d="M324.93,368.54l3.38,7.22l3.42-8.12l2.22,10.17l-1.29,0.17l-1.28-6.09l-3.03,7.05l-3.01-6.41l-1.37,6.58
		l-1.4,0.18L324.93,368.54z"/>
	<path class="st3" d="M338.43,367.19l4.65-0.6l-0.04,1.34l-3.31,0.43l-0.06,2.51l3.32-0.43l-0.02,1.34l-3.3,0.43l-0.06,3.49
		l3.29-0.43l0,1.37l-4.66,0.6L338.43,367.19z"/>
	<path class="st3" d="M363.61,364.85l-0.23,1.6c-0.98-0.8-2.03-1.12-3.14-0.98c-1.12,0.14-2,0.64-2.67,1.5
		c-0.66,0.85-0.92,1.83-0.78,2.93c0.14,1.06,0.61,1.91,1.42,2.55c0.81,0.64,1.73,0.9,2.75,0.76c0.81-0.11,1.64-0.47,2.49-1.11
		l-0.01,1.66c-0.78,0.48-1.53,0.77-2.24,0.86c-1.47,0.19-2.76-0.15-3.87-1.01c-1.11-0.86-1.77-2.03-1.96-3.5
		c-0.2-1.53,0.16-2.87,1.08-4.03s2.16-1.84,3.72-2.04C361.3,363.89,362.45,364.16,363.61,364.85z"/>
	<path class="st3" d="M368.32,368.45c-0.19-1.5,0.18-2.84,1.13-4.03c0.95-1.18,2.21-1.87,3.79-2.08c1.46-0.19,2.76,0.14,3.88,0.99
		c1.13,0.85,1.78,1.98,1.96,3.4c0.2,1.53-0.17,2.89-1.11,4.09c-0.94,1.2-2.18,1.9-3.72,2.1c-1.5,0.19-2.82-0.13-3.95-0.99
		C369.17,371.08,368.51,369.92,368.32,368.45z M377.67,367.03c-0.14-1.09-0.62-1.94-1.43-2.55c-0.81-0.62-1.77-0.85-2.87-0.71
		c-1.16,0.15-2.09,0.66-2.8,1.52s-0.99,1.84-0.85,2.93c0.14,1.1,0.63,1.96,1.45,2.58c0.82,0.62,1.8,0.85,2.92,0.71
		c1.13-0.15,2.05-0.65,2.74-1.53C377.54,369.11,377.81,368.13,377.67,367.03z"/>
	<path class="st3" d="M383.73,366.45c-0.19-1.5,0.18-2.84,1.13-4.03c0.95-1.18,2.21-1.87,3.79-2.08c1.46-0.19,2.76,0.14,3.88,0.99
		c1.13,0.85,1.78,1.98,1.96,3.4c0.2,1.53-0.17,2.89-1.11,4.09c-0.94,1.2-2.18,1.9-3.72,2.1c-1.5,0.19-2.82-0.13-3.95-0.99
		C384.58,369.09,383.92,367.93,383.73,366.45z M393.08,365.04c-0.14-1.09-0.62-1.94-1.43-2.55c-0.81-0.62-1.77-0.85-2.87-0.71
		c-1.16,0.15-2.09,0.66-2.8,1.52c-0.71,0.86-0.99,1.84-0.85,2.93c0.14,1.1,0.63,1.96,1.45,2.58c0.82,0.62,1.8,0.85,2.92,0.71
		c1.13-0.15,2.05-0.65,2.74-1.53C392.94,367.11,393.22,366.13,393.08,365.04z"/>
	<path class="st3" d="M399.64,359.26l1.32-0.17l-0.06,3.99l3.48-4.43l1.83-0.24l-4.03,5.2l5.08,4.7l-1.7,0.22l-4.68-4.32l-0.08,4.93
		l-1.32,0.17L399.64,359.26z"/>
	<path class="st3" d="M412.27,357.63l1.33-0.17l-0.17,10.06l-1.33,0.17L412.27,357.63z"/>
	<path class="st3" d="M419.46,356.22l6.65,6.76l0.16-7.16l1.28-0.17l-0.16,10.44l-6.67-6.75l-0.12,7.25l-1.32,0.17L419.46,356.22z"
		/>
	<path class="st3" d="M441.27,355.44l-0.94,1.11c-0.45-0.44-0.97-0.74-1.57-0.9c-0.6-0.17-1.2-0.21-1.79-0.13
		c-1.09,0.14-1.98,0.68-2.68,1.61c-0.7,0.93-0.98,1.95-0.83,3.07c0.13,1.03,0.56,1.85,1.29,2.44c0.72,0.59,1.57,0.83,2.53,0.7
		c1.39-0.18,2.38-0.93,2.96-2.24l-2.47,0.32l-0.17-1.32l4.38-0.57c-0.05,1.43-0.48,2.61-1.28,3.55c-0.8,0.94-1.87,1.49-3.2,1.66
		c-1.38,0.18-2.59-0.14-3.6-0.97c-1.02-0.82-1.62-1.97-1.81-3.43c-0.19-1.45,0.17-2.8,1.08-4.05c0.91-1.25,2.17-1.98,3.78-2.19
		c0.75-0.1,1.51-0.04,2.27,0.18C439.97,354.49,440.66,354.88,441.27,355.44z"/>
</g>
</svg>
