<?xml version="1.0" encoding="utf-8"?>
<!-- Generator: Adobe Illustrator 23.0.6, SVG Export Plug-In . SVG Version: 6.00 Build 0)  -->
<svg version="1.1" id="Layer_1" xmlns="http://www.w3.org/2000/svg" xmlns:xlink="http://www.w3.org/1999/xlink" x="0px" y="0px"
	 viewBox="0 0 792 612" style="enable-background:new 0 0 792 612;" xml:space="preserve">
<style type="text/css">
	.st0{fill:#FFFFFF;}
	.st1{fill:#EF3C24;}
	.st2{fill-rule:evenodd;clip-rule:evenodd;fill:#EF3C24;}
	.st3{fill-rule:evenodd;clip-rule:evenodd;fill:#7F9C52;}
</style>
<rect x="235.4" y="99.5" transform="matrix(0.7451 -0.6669 0.6669 0.7451 -41.071 201.5872)" class="st0" width="15.5" height="110.1"/>
<circle class="st0" cx="396" cy="321.3" r="186.3"/>
<path d="M249.1,446c68.7,81.7,190.6,92.3,272.3,23.6S613.7,279,545,197.3c-63.3-75.4-172-90.2-252.6-38.2l-72.5-86.3
	c-8.7-10.3-24.2-11.7-34.5-3c-10.3,8.7-11.7,24.2-3,34.5l72.5,86.3C189.8,261.1,185.7,370.7,249.1,446z M208.2,81.5
	c3.5,4.2,3,10.5-1.2,14.1c-4.2,3.5-10.5,3-14.1-1.2s-3-10.5,1.2-14.1C198.4,76.7,204.7,77.3,208.2,81.5z M407.1,489.4
	c17.6-2.9,34.7-7.8,50.7-15.1c16-7.2,30.9-16.6,44.2-27.8c13.3-11.3,25.1-24.4,34.8-39c9.8-14.6,17.5-30.6,23.4-47.5
	c-1.5,8.8-3.8,17.5-6.9,26c-3.2,8.4-7,16.7-11.6,24.5c-9.2,15.6-21.1,29.8-35,41.5c-13.9,11.7-29.8,21.1-46.7,27.6
	C443,485.9,425,489.5,407.1,489.4z M223.5,278.8c1-8.5,2.7-17,5.4-25.3c1.2-4.2,2.9-8.2,4.5-12.2c0.8-2,1.8-3.9,2.7-5.9
	c0.5-1,0.9-2,1.4-3l1.5-2.9l1.5-2.9l0.8-1.4l0.8-1.4l3.4-5.6l3.6-5.4c1.2-1.8,2.6-3.5,3.9-5.3c1.3-1.8,2.7-3.4,4.1-5.1
	c1.4-1.7,2.8-3.3,4.3-5c1.5-1.6,3-3.2,4.5-4.8c0.7-0.7,1.5-1.5,2.2-2.2c-4.6-5.6-9.3-11.1-13.8-16.7c-5.3-6.5-10.6-13.1-15.7-19.7
	c-5.2-6.6-10.3-13.3-15.4-20c-5-6.7-10.1-13.5-14.9-20.4c6,5.9,11.8,12,17.5,18.1c5.7,6.2,11.4,12.3,17,18.6
	c5.6,6.3,11.2,12.6,16.7,18.9c5.5,6.3,10.9,12.7,16.4,19.1l2.3,2.7l-2.7,2.4l-1.1,1c-0.4,0.3-0.8,0.7-1.1,1
	c-0.8,0.7-1.5,1.4-2.2,2.2c-1.5,1.4-2.9,3-4.3,4.5c-1.4,1.5-2.8,3.1-4.2,4.7c-1.3,1.6-2.7,3.2-4,4.8c-1.3,1.7-2.6,3.3-3.9,4.9
	l-3.7,5.1c-2.3,3.5-4.7,6.9-6.9,10.5l-1.7,2.7c-0.5,0.9-1,1.8-1.5,2.8c-1,1.8-2.1,3.7-3.1,5.5c-1.9,3.8-3.9,7.5-5.4,11.4
	C228.7,262.5,226.1,270.6,223.5,278.8z M264.4,430.1c8.5,9.8,18,18.8,28.4,26.8c10.4,8,21.5,15,33.3,21.1
	c-12.7-4-24.7-10.1-35.8-17.6c-11.1-7.5-21.2-16.5-30-26.7c-4.4-5.1-16.1-25.1-12.3-19.8"/>
<g>
	<path class="st1" d="M300.1,164.9l1.4-0.8l2.2,3.8l4.7-2.7l-2.2-3.8l1.3-0.8l5.7,9.9l-1.3,0.8l-2.7-4.8l-4.7,2.7l2.7,4.8l-1.4,0.8
		L300.1,164.9z"/>
	<path class="st1" d="M318,161.5c-0.7-1.5-0.7-3.1,0-4.6c0.7-1.6,1.8-2.7,3.4-3.4c1.6-0.7,3.1-0.7,4.8-0.2c1.6,0.6,2.7,1.6,3.4,3.1
		c0.7,1.6,0.7,3.2,0.1,4.7c-0.6,1.6-1.8,2.7-3.4,3.5c-1.6,0.7-3.2,0.8-4.8,0.2C319.9,164.1,318.7,163,318,161.5z M328.1,157.1
		c-0.5-1.2-1.4-1.9-2.5-2.4c-1.2-0.4-2.4-0.4-3.6,0.2c-1.2,0.5-2,1.4-2.4,2.5c-0.5,1.2-0.5,2.3,0,3.4c0.5,1.1,1.4,1.9,2.6,2.3
		c1.2,0.4,2.4,0.4,3.6-0.2c1.1-0.5,1.9-1.3,2.4-2.5C328.6,159.3,328.6,158.2,328.1,157.1z"/>
	<path class="st1" d="M344.9,144.7l6.5,10.5l-1.5,0.5l-4-6.4l-0.8,8.3l-5.4-6.5l0.3,7.6l-1.5,0.5l-0.5-12.3l5.9,7.1L344.9,144.7z"/>
	<path class="st1" d="M356.5,142.2l6.2-1.3l0.3,1.5l-4.7,1l0.6,2.8l4.7-1l0.3,1.5l-4.7,1l0.8,3.9l4.7-1l0.3,1.5l-6.2,1.3
		L356.5,142.2z"/>
	<path class="st1" d="M392.7,138.2l0.1,1.8c-1.3-0.5-2.4-0.8-3.4-0.7c-1.3,0.1-2.4,0.5-3.3,1.4c-0.9,0.9-1.3,2-1.2,3.2
		c0.1,1.3,0.6,2.3,1.6,3.1c1,0.8,2.2,1.2,3.6,1.1c1,0,2.1-0.4,3.2-1.1l0.1,1.8c-1,0.6-2.1,0.9-3.3,1c-1.8,0.1-3.3-0.4-4.6-1.6
		c-1.3-1.1-2-2.6-2.1-4.2c-0.1-1.7,0.5-3.1,1.6-4.4c1.2-1.2,2.6-1.9,4.4-2C390.3,137.6,391.5,137.8,392.7,138.2z"/>
	<path class="st1" d="M401,143.4c0.1-1.6,0.8-3,2.1-4.1c1.3-1.1,2.8-1.6,4.6-1.5c1.7,0.1,3.1,0.8,4.3,2s1.7,2.7,1.6,4.3
		c-0.1,1.7-0.8,3.2-2.1,4.3c-1.3,1.1-2.8,1.6-4.6,1.5c-1.7-0.1-3.2-0.8-4.4-2.1C401.4,146.6,400.9,145.1,401,143.4z M411.9,144.1
		c0.1-1.3-0.3-2.3-1.2-3.3c-0.9-0.9-2-1.4-3.3-1.5c-1.3-0.1-2.4,0.3-3.3,1.1c-0.9,0.8-1.5,1.9-1.5,3.1c-0.1,1.2,0.3,2.3,1.2,3.2
		c0.9,0.9,2,1.4,3.3,1.5c1.2,0.1,2.3-0.3,3.3-1.1C411.4,146.3,411.9,145.3,411.9,144.1z"/>
	<path class="st1" d="M421.8,145c0.3-1.6,1.1-2.9,2.6-3.9c1.4-1,3-1.3,4.7-1c1.7,0.3,3,1.1,4,2.5c1,1.4,1.4,2.9,1.1,4.5
		c-0.3,1.7-1.1,3-2.5,4c-1.4,1-3,1.3-4.7,1c-1.7-0.3-3.1-1.1-4.1-2.5C421.8,148.3,421.5,146.7,421.8,145z M432.6,147
		c0.2-1.2-0.1-2.4-0.8-3.4c-0.8-1-1.8-1.6-3.1-1.8c-1.2-0.2-2.4,0-3.4,0.7c-1,0.7-1.7,1.7-1.9,2.9c-0.2,1.2,0.1,2.4,0.8,3.4
		s1.8,1.6,3.1,1.9c1.2,0.2,2.3,0,3.4-0.8C431.7,149.1,432.4,148.2,432.6,147z"/>
	<path class="st1" d="M444.2,143.8l1.5,0.4l-1.3,4.5l5.9-3.2l2.1,0.6l-6.8,3.6l3.7,7.4l-1.9-0.5l-3.4-6.8l-1.5,5.4l-1.5-0.4
		L444.2,143.8z"/>
	<path class="st1" d="M460.5,148.9l1.5,0.5l-3.9,10.7l-1.5-0.5L460.5,148.9z"/>
	<path class="st1" d="M471,152.5l4,11.4l3.5-7.5l1.4,0.7l-5,10.9l-4-11.4l-3.4,7.4l-1.4-0.7L471,152.5z"/>
	<path class="st1" d="M497,168.8l-1.6,0.4c-0.4-1.6-1.3-2.8-2.6-3.6c-1.1-0.7-2.3-0.9-3.5-0.6c-1.2,0.3-2.1,1-2.8,2.1
		c-0.6,1-0.7,2.1-0.5,3.3c0.3,1.2,1.1,2.2,2.4,3c2,1.2,3.7,1.1,5.2-0.3l-2.6-1.6l0.8-1.3l4.2,2.5c-0.4,0.7-0.8,1.2-1.1,1.5
		s-0.8,0.7-1.4,1c-0.6,0.3-1.2,0.5-1.9,0.6c-0.7,0.1-1.4,0.1-2-0.1s-1.3-0.5-2.1-0.9c-1.7-1-2.7-2.4-3.1-4c-0.4-1.7-0.1-3.2,0.7-4.6
		c0.9-1.4,2.1-2.4,3.8-2.7s3.2-0.1,4.7,0.7c0.9,0.5,1.6,1.1,2.1,1.8S496.6,167.7,497,168.8z"/>
</g>
<g>
	<path class="st0" d="M286.5,371.4c-2.5,5.4-7.6,10-11.1,12.7c-0.9-9.5-1.6-24-2.1-37.9l-17.4,5c-1.5,5.4-3,10.4-4.1,15
		c-3.6,14.6-6.7,24.6-11.5,29.2c-5.8,5.6-12.4,4.3-14.6-4.1c-3.9-14.6,5.1-37.1,17.2-44.2l8.6-6c9.2-28.6,20.7-60.2,27.6-73.8
		c4.5-6.3,10.1-11.5,14.5-14.5C284.1,292,282,341.4,286.5,371.4z M242.6,354.6c-7.9,4.2-13.2,12.2-13.4,21.6c-0.1,7,3.7,9.6,9,3.1
		c3.2-4,5-10.7,7.2-17.5c0.8-2.8,1.6-6,2.5-9.1L242.6,354.6z M274.2,298.5c-5.1,11.9-9.7,25.6-14.1,39.7l13-5.7
		c-0.1-14.1,0.5-23.7,1.7-33.8L274.2,298.5z"/>
	<path class="st0" d="M334.6,358c-5.7,1.8-5.9-11.8-3.6-20.9c1.4-5.5,1.9-10.8,2.8-17.2c1.1-7.7-5.1-1.4-6.8,2
		c-3.4,7-5.3,14-6.4,19.2c0,0-1,5.2-3.1,15c-3.3,2.2-7.7,4.5-10.1,5.3c5-27.3,5.6-34.7,5.6-34.7c0.7-7.4-1.4-7.2-4.5-3.5
		c-3.1,3.7-5.8,10.6-6.6,14.3c-1.7,9.8-3.5,15-4.8,22.5c-2.7,1.7-7.6,3.7-9.8,4.2l2.6-17.9l6.4-39.5c3.3-2,8.7-5.2,11.4-5.5
		l-3.8,18.8l0.2,0.1c3.9-4.6,6.9-11.7,12.7-17.1c6.2-6.1,8.9-2.4,8.3,10.9l0.2,0.3c9.4-10.8,13-19.8,18-17.7c5,2,1.3,13.3-0.5,22.7
		c-2.1,11.4-1.9,16.6-1.8,20.8c0.2,6.5,9.4-16.6,12.2-23.5l2.2,3C347.8,341,340,356.2,334.6,358z"/>
	<path class="st0" d="M374.6,343.2c-5.1,7.8-9.9,13-14.8,11.7c-5.8-1.6-10.1-4.5-10.1-24c-0.1-17.5,11-36.3,19-38.8
		c5.5-1.8,13.8,2.1,10.4,18.5c-3.5,16.4-10.9,18.3-18.7,20.7c-1.3,11.5,5.6,16,12.5,7c7-9.1,10.2-19,12.2-26.8l2.3,3.4
		C384.2,327.1,378.1,337.8,374.6,343.2z M366.6,305.1c-2.2,4.8-4.8,12.1-5.6,21.1c3,1.5,8.3-0.7,11-17.9
		C373.3,298.9,368.4,300.8,366.6,305.1z"/>
	<path class="st0" d="M401.4,342.1c-3.6,7.2-12.9,12.8-12.3,1.7c0.4-7,5.3-28.5,7.6-33.2l-7.9,3.9c-0.7,0.2-1.2,1.1-2.3,2.1
		c-0.7-0.2-2.2-0.9-2.2-0.9c0.6-3.5,0.8-4.3,0.8-7.7c-1.1-5.5-1.6-12.7,0.7-17.3c2.7-5.6,6.7-7.6,7.4-2.4c0.7,5.2,0.1,6.4-0.1,8.2
		c1.8-0.1,8-2.3,11.9-6.1c1.4,6.1,1.2,12.9,1.2,12.9c-7.6,12.2-6.9,24.9-6.3,28.8c1,6.1,7.3-12.6,12.4-24l2.2,3
		C410.3,322.2,401.4,342.1,401.4,342.1z"/>
	<g>
		<path class="st0" d="M422.2,327.5c-2.8,5.3-4.4,3-3.7-5.9c0.5-6.6,3.5-17.4,6.6-32.7c-2.1,0.9-6.9,2.7-9.9,5.1
			c-3,10.8-6.2,22.4-6.8,33.7c-0.7,12,3.3,20.6,7.8,17.5c4.3-3.1,11.5-17.8,16.5-37.1l-2.4-2C427.2,315.7,425,322.2,422.2,327.5z"/>
	</g>
	<path class="st0" d="M451.5,333.5c-4.9,7.1-10.2,12.1-14.5,10.9c-5.9-1.6-10.4-7.6-10.1-23c0.3-17.6,10.9-37.2,19-39.8
		c5.4-1.6,11.3,0.7,11.2,13c-2.5,2-7.1,5.2-9.3,5.8c1.4-7.9-2.1-8.5-4.3-4.6c-3.6,6.3-5.2,14.8-6,23.9c-1.1,11.6,5.7,17.3,12.7,8.2
		c6.9-9,11.1-21.8,12.6-26.7l2.2,2.8C462.2,313.5,455.8,327.4,451.5,333.5z"/>
	<path class="st0" d="M492.4,327.4c-3.2,5.9-5.7,8.4-7.5,8.9c-2.4,0.9-4.4-2.8-5.5-8.9c-5.9,12.6-12.7,14.8-17.3,12.2
		c-4.9-2.9-6-19.4-0.5-35.7c5.3-15.8,13.3-24.4,21.6-20.1c0.3-1.2,0.5-1.4,0.9-2.6l9.9-2.9c-2.6,9.3-3.8,20.5-4.9,28
		c-1.4,12.5,0.1,17.2,2.7,13.2c1.9-3.1,5.3-14.1,8.3-23.4l2.4,2.6C499.4,309.9,495.1,322.2,492.4,327.4z M474.6,293.3
		c-4.1,8.7-7.4,26.7-5.2,32.5c1.8,4.9,6.2,1.5,9.3-5.2c-0.2-4.6-0.1-9.9,0.7-15.1c0.6-4.5,1.4-12.1,2.8-17.5
		C480.1,287,477.4,287.3,474.6,293.3z"/>
	<path class="st0" d="M520.9,331.1c-4.9,4.2-9.4-1.4-6.5-16.8c1.9-9.6,3.4-19.7-0.7-14.2c-4.3,5.5-8.4,16.3-11.5,30
		c-2.8,2.5-6.2,3.8-8.4,4.3c0,0,2.1-13.8,8.8-56.7c4.1-1.9,8.8-3.3,11.7-3.9c-1,5.1-3.1,15.2-4.5,21.1l0.3,0.2
		c3.4-6.3,10-16.9,13-19.3c9.5-7.9,6,5.9,4.5,13.8c-1.4,7.8-3.4,18.7-2.7,24.6c0.8,6.3,9.4-16,12.2-23.8l2,3.3
		C535.5,305.8,525.7,326.9,520.9,331.1z"/>
	<path class="st0" d="M567,317c-3.2,5.9-5.7,8.4-7.5,8.9c-2.4,0.9-4.4-2.8-5.5-8.9c-5.9,12.6-12.7,14.8-17.3,12.2
		c-4.9-2.9-6-19.4-0.5-35.7c5.3-15.8,13.3-24.4,21.6-20.1c0.3-1.2,0.5-1.4,0.9-2.6l9.9-2.9c-2.6,9.3-3.8,20.5-4.9,28
		c-1.4,12.5,0.1,17.2,2.7,13.2c1.9-3.1,5.3-14.1,8.3-23.4l2.4,2.6C574,299.5,569.7,311.9,567,317z M549.2,282.9
		c-4.1,8.7-7.4,26.7-5.2,32.5c1.8,4.9,6.2,1.5,9.3-5.2c-0.2-4.6-0.1-9.9,0.7-15.1c0.6-4.5,1.4-12.1,2.8-17.5
		C554.7,276.6,552,276.9,549.2,282.9z"/>
</g>
<g>
	<path class="st0" d="M312.2,270.9l2.6-5.1l0.3,0c0.6,3,3.7,1,3.2-1.6c-0.5-2.8-4.7-1-7.1,1.6c-1.4,1.5-3.9,5.5-5,8.7
		c-0.8,2.4-1.5,5-1.9,7.8c-1.1,7.2,2.2,8.8,6.1,7c3.1-1.4,5.6-4.8,7.4-7.7l0.8,0.6c-2.5,4.3-5.4,7.3-8.3,8.9c-7.2,4-12.5,1.9-12.7-4
		c-0.1-3.9,1.2-8.4,3.2-12.6c1.8-3.8,5.1-8,6.9-9.9c5.4-5.3,12.1-5.5,12.5-1.9C320.6,266.6,316.1,274.3,312.2,270.9z"/>
	<path class="st0" d="M330.2,284.1c-1.4,1.7-2.5,2.4-3.2,2.6c-1,0.3-1.7-0.7-2-2.4c-2.6,3.6-5.4,4.3-7.2,3.6c-1.9-0.8-2-5.4,0.6-10
		c2.5-4.5,5.8-7,9.1-5.8c0.2-0.3,0.2-0.4,0.4-0.8l4-0.9c-1.3,2.6-2,5.8-2.6,7.9c-0.9,3.5-0.3,4.8,0.8,3.7c0.8-0.9,2.4-4,3.8-6.7
		l0.9,0.7C333.4,279.1,331.4,282.6,330.2,284.1z M323.8,274.7c-1.8,2.5-3.5,7.6-2.8,9.2c0.6,1.4,2.4,0.4,3.8-1.5
		c0-1.3,0.2-2.8,0.6-4.2c0.3-1.3,0.8-3.4,1.5-4.9C326.2,272.9,325.1,273,323.8,274.7z"/>
	<path class="st0" d="M345.9,262.1c0.2-2.1-1-2.6-2.9,0.3c-1.3,2.1-2.5,5.3-3.6,8.7c3-1.1,4.6-1.4,4.6-1.4c-0.3,1.3-0.6,2.3-1.7,3.9
		c-1.4,0.2-2.7,0.5-3.9,0.7c-1,3.3-2.1,6.6-3.1,9.8c-1.1,3.5-1.6,5-2.8,7c-1.1,1.7-3.2,3-5.4,1.2l-1.6-3.6l0.1-0.1
		c0.9,0.8,3,1.5,4.4-0.2c1.3-1.6,2.7-8.1,3.4-10.4c0.3-0.9,0.5-1.3,0.8-2.7c-0.7,0.2-1.3,0.4-2,0.6c0-0.4,0.1-1.1,0.3-1.7
		c0.8-0.4,1.6-0.8,2.4-1.2c1.6-5.1,2.6-8.5,5.1-11.7c3.5-4.6,6.5-4.8,8.1-4c0.7,0.3,1.5,1.6,1.3,3.3
		C348.6,260.9,347,261.8,345.9,262.1z"/>
	<path class="st0" d="M351.9,281.3c-2.2,2.2-4.3,3.7-6.2,3.4c-2.3-0.4-3.9-1.2-3.5-6.6c0.4-4.9,5.2-10.3,8.5-11.1
		c2.2-0.6,5.5,0.5,3.8,5.1c-1.8,4.6-4.8,5.2-8,6c-0.8,3.2,1.9,4.4,4.8,1.9c3-2.6,4.5-5.4,5.5-7.6l0.9,0.9
		C356.1,276.7,353.4,279.8,351.9,281.3z M349.5,270.7c-1,1.4-2.2,3.4-2.7,6c1.2,0.4,3.4-0.3,4.8-5.1
		C352.4,268.9,350.4,269.5,349.5,270.7z"/>
</g>
<g>
	<path class="st2" d="M403.6,247.8c3-1.3,6.3-1.8,9.5-1.1c-9.1,0.5-15.4,7.7-13.7,17.3c-1.6-14,15.5-21.7,25.1-11.3
		c-0.7-1-1.5-1.9-2.4-2.7c2-3.1,5.2-5.3,8.9-5.7c5.1-0.6,10.3,2.1,12.8,7.2c1.9,3.8,2.3,8,1.6,12c-3.7,21.7-37.3,28.9-48.5,9.3
		c-2.9-5.1-3.8-11.2-1.7-16.5C396.7,252.5,399.8,249.5,403.6,247.8L403.6,247.8z M421.3,241c2.1-0.8,4.4-1,6.6-0.8
		c-0.2,0.3-0.3,0.5-0.5,0.7c-1.2,1.4-2.8,2.5-4.8,2.9c-0.4,0.1-0.9,0.2-1.3,0.2C421.2,242.9,421.2,241.9,421.3,241L421.3,241z
		 M429.7,240.4c2.7,0.4,5.5,1.9,7.1,3.5c-3.2-1.1-6.7-0.9-9.8,0.4c0.3-0.3,0.6-0.6,0.9-0.9C428.6,242.6,429.2,241.5,429.7,240.4
		L429.7,240.4z"/>
	<path class="st3" d="M399.7,242.3c0.3-3.4,3.2-4.1,5.8-2.5c1,0.6,1.9,1.4,2.7,2.1c1.1,0.9,2.2,1.9,3.3,2.8c3.3,2.5,6.8,2.1,9.8,4.2
		c1.4-2.2,4.3-3.4,6.2-5.6c2-2.4,3-5.4,1.6-8.5c1,4.6-2.8,9.3-8.3,9.5c-0.2-4.1,0.4-6.1,3.1-9.6c0.8-1.1,1.6-2.2,1.7-3.4
		c0.1-0.8-0.1-1.7-0.8-2.2c-0.3-0.2-0.7-0.4-1.2-0.4c2.6,0.8,0.8,3.2-0.3,4.4c-2.1,2.3-4.5,4.7-5,9.3c-0.6-2.4-1.6-4.8-3.3-6.9
		c-0.4-0.5-0.9-1.2-1.6-1.2c-0.4,0-0.9,0.1-1.3,0.4c-0.5,0.3-1.5,1.3-1.5,2.4c0.2-1,0.9-1.7,1.6-2.1c1.6-1,2.6,0.1,1,1.4
		c-0.7,0.5-1.8,1-2.4,1c0.6,0.1,1,0.3,1.6,0.6c2.7,1.4,4.6,4.7,4.4,7.5c-0.1-0.8-0.2-1.3-0.5-1.5c-1.2,0.2-2.8-0.4-4.2-1.4
		c-2-1.4-4.4-3.5-6.9-4.3c-1.7-0.5-3.8-0.3-4.9,1.2C399.9,240.1,399.6,241.1,399.7,242.3L399.7,242.3z M398.8,245.8
		c3.5,2.6,8.6-1.3,14.1,0c-1-0.5-1.9-1.2-2.8-2C408.1,243.9,402,247.2,398.8,245.8L398.8,245.8z"/>
</g>
</svg>
