<svg id="Layer_1" data-name="Layer 1" xmlns="http://www.w3.org/2000/svg" viewBox="0 0 352.34 169.98"><defs><style>.cls-1{fill:#231f20;}.cls-2,.cls-4{fill:#ef3c24;}.cls-2,.cls-3{fill-rule:evenodd;}.cls-3{fill:#7f9c52;}</style></defs><title>CafeAmericana_type_black&amp;amp;red</title><path class="cls-1" d="M286.48,374.36c-2.54,5.41-7.57,10-11.11,12.7-.91-9.54-1.59-24-2.08-37.91l-17.44,5c-1.51,5.41-3,10.37-4.09,15-3.63,14.63-6.68,24.56-11.49,29.25-5.81,5.56-12.38,4.25-14.57-4.07-3.89-14.62,5.13-37.12,17.23-44.16l8.65-6c9.2-28.63,20.65-60.25,27.62-73.85a63.17,63.17,0,0,1,14.46-14.5C284.08,295,282,344.37,286.48,374.36Zm-43.85-16.78a24.94,24.94,0,0,0-13.36,21.63c-.06,7,3.7,9.59,9,3.06,3.15-4,5-10.65,7.25-17.51.84-2.79,1.63-6,2.54-9.12Zm31.54-56.11c-5.15,11.86-9.73,25.58-14.15,39.72l13-5.68a259.25,259.25,0,0,1,1.67-33.82Z" transform="translate(-224.78 -231.72)"/><path class="cls-1" d="M334.58,361c-5.72,1.84-5.87-11.82-3.64-20.9,1.39-5.54,1.9-10.81,2.76-17.18,1.09-7.73-5.13-1.36-6.83,2a88.21,88.21,0,0,0-6.39,19.18s-1,5.19-3.06,15a49.69,49.69,0,0,1-10.09,5.27c5-27.3,5.58-34.67,5.58-34.67.72-7.38-1.42-7.23-4.51-3.53s-5.83,10.62-6.56,14.29c-1.73,9.75-3.47,15.05-4.79,22.52a40.66,40.66,0,0,1-9.82,4.19l2.55-17.9,6.44-39.54c3.34-1.95,8.75-5.23,11.4-5.45l-3.77,18.81.22.12c3.9-4.56,6.93-11.67,12.66-17.08Q326,297,325.05,317l.24.26c9.41-10.82,13-19.8,18-17.67,5,2,1.34,13.33-.45,22.65C340.76,333.66,341,338.83,341,343c.19,6.51,9.43-16.62,12.17-23.55l2.17,3C347.76,344,340,359.18,334.58,361Z" transform="translate(-224.78 -231.72)"/><path class="cls-1" d="M374.64,346.18c-5.08,7.85-9.93,13-14.84,11.73-5.78-1.57-10.11-4.54-10.14-24-.08-17.53,11-36.31,19-38.76,5.52-1.81,13.78,2.09,10.4,18.46s-10.94,18.32-18.74,20.74c-1.29,11.48,5.63,16,12.51,7s10.24-19,12.23-26.82L387.4,318A104.39,104.39,0,0,1,374.64,346.18Zm-8.08-38.11A64.16,64.16,0,0,0,361,329.22c3,1.51,8.35-.72,11-17.89C373.32,301.93,368.43,303.8,366.56,308.07Z" transform="translate(-224.78 -231.72)"/><path class="cls-1" d="M401.38,345.13c-3.63,7.2-12.94,12.81-12.32,1.72.36-7,5.29-28.53,7.63-33.17l-7.9,3.93c-.68.24-1.19,1.06-2.28,2.1a16.59,16.59,0,0,1-2.18-.88,29.14,29.14,0,0,0,.78-7.69c-1.07-5.5-1.56-12.72.68-17.34,2.72-5.58,6.66-7.61,7.39-2.37a21.92,21.92,0,0,1-.09,8.19c1.84-.11,8-2.3,11.92-6.12a61.19,61.19,0,0,1,1.18,12.92,44.7,44.7,0,0,0-6.29,28.81c1,6.11,7.31-12.61,12.42-24l2.16,3C410.34,325.16,401.38,345.13,401.38,345.13Z" transform="translate(-224.78 -231.72)"/><path class="cls-1" d="M422.21,330.49c-2.76,5.29-4.42,3-3.7-5.87.52-6.61,3.54-17.44,6.57-32.72-2.15.89-6.93,2.75-9.9,5.09-3,10.83-6.15,22.41-6.85,33.65-.7,12,3.28,20.65,7.79,17.5,4.3-3.13,11.53-17.81,16.47-37.08l-2.45-2C427.16,318.66,425,325.2,422.21,330.49Z" transform="translate(-224.78 -231.72)"/><path class="cls-1" d="M451.48,336.52c-4.89,7.07-10.16,12.12-14.54,11-5.89-1.56-10.44-7.62-10.1-23,.33-17.59,10.88-37.19,19-39.8,5.43-1.65,11.32.65,11.18,13-2.5,2-7.11,5.15-9.29,5.75,1.37-7.92-2.11-8.47-4.35-4.6-3.55,6.29-5.24,14.85-6.05,23.88-1.06,11.6,5.71,17.34,12.68,8.2s11.08-21.76,12.55-26.72l2.25,2.81C462.18,316.45,455.78,330.43,451.48,336.52Z" transform="translate(-224.78 -231.72)"/><path class="cls-1" d="M492.44,330.37c-3.19,5.95-5.73,8.38-7.51,8.93-2.45.93-4.41-2.81-5.46-8.9-5.88,12.56-12.67,14.84-17.26,12.21-4.93-2.88-6-19.38-.54-35.74,5.32-15.76,13.28-24.44,21.61-20.11.34-1.23.52-1.41.87-2.64l9.9-2.87c-2.62,9.28-3.85,20.45-4.86,28-1.44,12.54.14,17.23,2.66,13.16,1.94-3.09,5.35-14.12,8.27-23.45l2.43,2.64C499.38,312.91,495.13,325.24,492.44,330.37Zm-17.83-34.08c-4.13,8.75-7.4,26.75-5.15,32.53,1.82,4.95,6.19,1.51,9.27-5.16a75.31,75.31,0,0,1,.68-15.1c.61-4.55,1.41-12.09,2.82-17.49C480.13,290,477.38,290.26,474.61,296.29Z" transform="translate(-224.78 -231.72)"/><path class="cls-1" d="M520.88,334.14c-4.87,4.24-9.36-1.37-6.46-16.79,1.86-9.62,3.45-19.65-.73-14.16s-8.44,16.33-11.48,30a19.65,19.65,0,0,1-8.37,4.29s2.09-13.82,8.8-56.66a54.73,54.73,0,0,1,11.72-3.86c-1.05,5.05-3.15,15.15-4.48,21.13l.35.25c3.35-6.26,10-16.85,13-19.34,9.51-7.87,6,5.85,4.5,13.79-1.39,7.77-3.37,18.75-2.66,24.59.78,6.29,9.41-16,12.24-23.85l2,3.29C535.48,308.77,525.75,329.9,520.88,334.14Z" transform="translate(-224.78 -231.72)"/><path class="cls-1" d="M567,320c-3.19,5.94-5.73,8.38-7.51,8.92-2.44.94-4.41-2.8-5.46-8.9-5.87,12.56-12.66,14.84-17.25,12.21-4.94-2.88-6-19.38-.55-35.74,5.32-15.75,13.28-24.44,21.61-20.1.34-1.24.52-1.41.87-2.65l9.9-2.86c-2.62,9.28-3.85,20.45-4.85,28-1.45,12.54.13,17.22,2.65,13.15,1.94-3.09,5.35-14.12,8.27-23.44l2.43,2.63C574,302.52,569.7,314.86,567,320Zm-17.82-34.08c-4.14,8.75-7.4,26.74-5.16,32.52,1.83,4.95,6.19,1.52,9.28-5.15a74.67,74.67,0,0,1,.67-15.11c.61-4.54,1.41-12.09,2.82-17.48C554.7,279.64,552,279.88,549.19,285.91Z" transform="translate(-224.78 -231.72)"/><path class="cls-1" d="M312.13,273.86l2.61-5.1H315c.6,3,3.68,1,3.23-1.63s-4.74-1-7.11,1.64a30.68,30.68,0,0,0-5,8.65,52.52,52.52,0,0,0-1.91,7.79c-1.11,7.2,2.22,8.82,6.09,7,3.05-1.4,5.61-4.85,7.41-7.75l.77.57a23.39,23.39,0,0,1-8.34,8.89c-7.24,4-12.54,1.89-12.66-4a29.42,29.42,0,0,1,3.18-12.61,42.75,42.75,0,0,1,6.95-9.88c5.35-5.27,12.09-5.55,12.45-1.87C320.5,269.59,316.05,277.27,312.13,273.86Z" transform="translate(-224.78 -231.72)"/><path class="cls-1" d="M330.12,287.1c-1.4,1.7-2.48,2.4-3.2,2.57-1,.29-1.7-.74-2-2.44-2.62,3.58-5.39,4.28-7.16,3.59s-2-5.38.57-10c2.47-4.47,5.84-7,9.08-5.85.16-.35.24-.4.4-.75l4-.89a45.69,45.69,0,0,0-2.56,7.9c-.86,3.53-.33,4.83.77,3.67.84-.89,2.45-4,3.82-6.66l.92.72A50.11,50.11,0,0,1,330.12,287.1Zm-6.37-9.39c-1.85,2.49-3.55,7.57-2.78,9.17.62,1.37,2.44.37,3.82-1.53a15.38,15.38,0,0,1,.6-4.25,34,34,0,0,1,1.52-4.93C326.09,275.9,325,276,323.75,277.71Z" transform="translate(-224.78 -231.72)"/><path class="cls-1" d="M345.84,265.05c.24-2.09-1-2.6-2.85.31a43.52,43.52,0,0,0-3.63,8.65,29.23,29.23,0,0,1,4.59-1.38,10.14,10.14,0,0,1-1.68,3.88c-1.42.21-2.72.45-3.93.68-1,3.31-2.06,6.57-3.11,9.83-1.14,3.53-1.62,5-2.84,7-1.07,1.7-3.22,3-5.39,1.19l-1.58-3.57.06-.13a3,3,0,0,0,4.39-.24c1.3-1.56,2.74-8.14,3.38-10.36.26-.9.46-1.34.84-2.66-.68.2-1.32.36-2,.56a7.22,7.22,0,0,1,.29-1.72c.81-.43,1.6-.77,2.38-1.16,1.57-5.1,2.61-8.49,5.08-11.68,3.53-4.55,6.48-4.78,8.14-4a3.23,3.23,0,0,1,1.3,3.27A19.15,19.15,0,0,1,345.84,265.05Z" transform="translate(-224.78 -231.72)"/><path class="cls-1" d="M351.84,284.32c-2.21,2.25-4.26,3.73-6.2,3.43-2.27-.39-3.94-1.18-3.52-6.64.36-4.91,5.2-10.29,8.45-11.05,2.25-.56,5.47.45,3.76,5.08s-4.78,5.24-7.95,6c-.77,3.23,1.89,4.43,4.84,1.85a21,21,0,0,0,5.48-7.64l.86.93A30.59,30.59,0,0,1,351.84,284.32Zm-2.4-10.62a15.77,15.77,0,0,0-2.7,6c1.16.39,3.35-.28,4.79-5.12C352.28,271.92,350.29,272.49,349.44,273.7Z" transform="translate(-224.78 -231.72)"/><path class="cls-2" d="M403.56,250.82a15.21,15.21,0,0,1,9.5-1.12c-9.05.47-15.41,7.73-13.7,17.25-1.62-14,15.53-21.67,25.07-11.28A14,14,0,0,0,422,253a12.41,12.41,0,0,1,8.9-5.71,12.71,12.71,0,0,1,12.81,7.22,19.7,19.7,0,0,1,1.62,12c-3.72,21.69-37.32,28.85-48.52,9.26-2.89-5.07-3.83-11.2-1.65-16.47a16.21,16.21,0,0,1,8.4-8.49ZM421.31,244a15.33,15.33,0,0,1,6.62-.84,7.88,7.88,0,0,1-.55.74,8.73,8.73,0,0,1-4.83,2.93,9.54,9.54,0,0,1-1.32.19,16.31,16.31,0,0,1,.08-3Zm8.34-.6a13.48,13.48,0,0,1,7.06,3.54,13.58,13.58,0,0,0-9.76.41,9.08,9.08,0,0,0,.86-.89,10.36,10.36,0,0,0,1.84-3.06Z" transform="translate(-224.78 -231.72)"/><path class="cls-3" d="M399.72,245.27c.27-3.37,3.19-4.11,5.8-2.55a19.29,19.29,0,0,1,2.74,2.15c1.08.93,2.21,1.94,3.33,2.79,3.35,2.53,6.83,2.12,9.76,4.25,1.4-2.18,4.35-3.36,6.24-5.59s3-5.37,1.64-8.5c1,4.6-2.84,9.29-8.27,9.54-.24-4.07.39-6.11,3.08-9.63a7.23,7.23,0,0,0,1.7-3.45,2.31,2.31,0,0,0-.82-2.17,2.34,2.34,0,0,0-1.25-.39c2.63.84.8,3.21-.28,4.41-2.12,2.35-4.53,4.65-5,9.26a17.74,17.74,0,0,0-3.31-6.88c-.42-.53-.88-1.16-1.61-1.21a2.1,2.1,0,0,0-1.34.43,3.49,3.49,0,0,0-1.54,2.39,3.47,3.47,0,0,1,1.58-2.14c1.63-1,2.61.14,1,1.37a4.89,4.89,0,0,1-2.37,1,5.34,5.34,0,0,1,1.65.64,8.31,8.31,0,0,1,4.38,7.46,3.49,3.49,0,0,0-.46-1.53c-1.15.23-2.77-.43-4.23-1.43-2-1.37-4.36-3.54-6.89-4.25-1.67-.46-3.78-.27-4.85,1.25a4.24,4.24,0,0,0-.67,2.8Zm-.89,3.54c3.49,2.63,8.62-1.31,14.13.05a16.23,16.23,0,0,1-2.81-2c-2.07.07-8.18,3.36-11.32,1.94Z" transform="translate(-224.78 -231.72)"/><path class="cls-4" d="M295.27,372.78l1.35-.17-.07,3.9,4.31-.56.07-3.9,1.32-.17-.2,10.06-1.3.17.09-4.83-4.31.56-.08,4.83-1.37.17Z" transform="translate(-224.78 -231.72)"/><path class="cls-4" d="M307.08,376.38a5.09,5.09,0,0,1,1.13-4,5.58,5.58,0,0,1,3.79-2.08,5.15,5.15,0,0,1,3.88,1,4.9,4.9,0,0,1,2,3.41,5.28,5.28,0,0,1-1.11,4.09,5.39,5.39,0,0,1-3.72,2.1,5.15,5.15,0,0,1-3.95-1A5,5,0,0,1,307.08,376.38Zm9.34-1.41a3.66,3.66,0,0,0-1.42-2.56,3.8,3.8,0,0,0-2.87-.71,4.19,4.19,0,0,0-2.8,1.52,3.74,3.74,0,0,0-.84,2.93,3.63,3.63,0,0,0,1.44,2.58,3.84,3.84,0,0,0,2.93.71,4.07,4.07,0,0,0,2.74-1.53A3.74,3.74,0,0,0,316.42,375Z" transform="translate(-224.78 -231.72)"/><path class="cls-4" d="M324.93,368.54l3.38,7.22,3.42-8.12L334,377.81l-1.29.17-1.27-6.1-3,7.06-3-6.41L324,379.1l-1.39.18Z" transform="translate(-224.78 -231.72)"/><path class="cls-4" d="M338.43,367.19l4.65-.6,0,1.35-3.31.42-.05,2.52,3.31-.43,0,1.34-3.3.43-.06,3.49,3.29-.43v1.37l-4.66.61Z" transform="translate(-224.78 -231.72)"/><path class="cls-4" d="M363.61,364.84l-.22,1.61a4,4,0,0,0-3.15-1,3.86,3.86,0,0,0-2.66,1.5,4,4,0,0,0,.63,5.47,3.53,3.53,0,0,0,2.76.77,5.46,5.46,0,0,0,2.49-1.11l0,1.66a5.7,5.7,0,0,1-2.24.86,5.11,5.11,0,0,1-5.83-4.51,5.18,5.18,0,0,1,1.07-4,5.43,5.43,0,0,1,3.73-2A5.33,5.33,0,0,1,363.61,364.84Z" transform="translate(-224.78 -231.72)"/><path class="cls-4" d="M368.32,368.45a5.15,5.15,0,0,1,1.13-4,5.64,5.64,0,0,1,3.79-2.08,5.14,5.14,0,0,1,3.88,1,4.89,4.89,0,0,1,2,3.4,5.29,5.29,0,0,1-1.11,4.1,5.44,5.44,0,0,1-3.72,2.1,5.23,5.23,0,0,1-3.95-1A5,5,0,0,1,368.32,368.45Zm9.35-1.42a3.65,3.65,0,0,0-1.43-2.55,3.73,3.73,0,0,0-2.86-.71,4.19,4.19,0,0,0-2.8,1.52,3.88,3.88,0,0,0,.6,5.51,3.86,3.86,0,0,0,2.92.71,4.05,4.05,0,0,0,2.74-1.53A3.76,3.76,0,0,0,377.67,367Z" transform="translate(-224.78 -231.72)"/><path class="cls-4" d="M383.73,366.45a5.09,5.09,0,0,1,1.13-4,5.58,5.58,0,0,1,3.79-2.08,5.11,5.11,0,0,1,3.88,1,4.87,4.87,0,0,1,2,3.4,5.35,5.35,0,0,1-1.11,4.09,5.44,5.44,0,0,1-3.72,2.1,5.16,5.16,0,0,1-4-1A5,5,0,0,1,383.73,366.45Zm9.35-1.41a3.67,3.67,0,0,0-1.43-2.56,3.8,3.8,0,0,0-2.87-.71A4.12,4.12,0,0,0,386,363.3a3.68,3.68,0,0,0-.85,2.92,3.64,3.64,0,0,0,1.45,2.58,3.82,3.82,0,0,0,2.92.71,4,4,0,0,0,2.74-1.53A3.78,3.78,0,0,0,393.08,365Z" transform="translate(-224.78 -231.72)"/><path class="cls-4" d="M399.64,359.26l1.32-.17-.06,4,3.48-4.43,1.83-.24-4,5.2,5.08,4.7-1.69.22-4.68-4.31-.07,4.93-1.32.17Z" transform="translate(-224.78 -231.72)"/><path class="cls-4" d="M412.27,357.63l1.33-.17-.17,10.05-1.33.18Z" transform="translate(-224.78 -231.72)"/><path class="cls-4" d="M419.46,356.22l6.65,6.75.15-7.15,1.29-.17-.16,10.44-6.67-6.75-.12,7.25-1.31.17Z" transform="translate(-224.78 -231.72)"/><path class="cls-4" d="M441.27,355.44l-.94,1.11a3.61,3.61,0,0,0-1.57-.91,4.54,4.54,0,0,0-1.79-.13,3.86,3.86,0,0,0-2.68,1.6,4,4,0,0,0-.83,3.07,3.59,3.59,0,0,0,1.28,2.44,3.17,3.17,0,0,0,2.53.7,3.56,3.56,0,0,0,3-2.23l-2.47.32-.18-1.32,4.38-.57a5.58,5.58,0,0,1-1.28,3.55,4.9,4.9,0,0,1-3.2,1.67,4.58,4.58,0,0,1-3.61-1,5.08,5.08,0,0,1-1.81-3.43,5.55,5.55,0,0,1,1.08-4,5.25,5.25,0,0,1,3.78-2.19,5.66,5.66,0,0,1,2.27.17A5.1,5.1,0,0,1,441.27,355.44Z" transform="translate(-224.78 -231.72)"/></svg>