<?xml version="1.0" encoding="utf-8"?>
<!-- Generator: Adobe Illustrator 23.0.6, SVG Export Plug-In . SVG Version: 6.00 Build 0)  -->
<svg version="1.1" id="Layer_1" xmlns="http://www.w3.org/2000/svg" xmlns:xlink="http://www.w3.org/1999/xlink" x="0px" y="0px"
	 viewBox="0 0 407 231" style="enable-background:new 0 0 407 231;" xml:space="preserve">
<style type="text/css">
	.st0{fill:#FFFFFF;}
	.st1{fill-rule:evenodd;clip-rule:evenodd;fill:#EF3C24;}
	.st2{fill-rule:evenodd;clip-rule:evenodd;fill:#7F9C52;}
	.st3{fill:#EF3C24;}
</style>
<g>
	<path class="st0" d="M86.5,169.4c-2.5,5.4-7.6,10-11.1,12.7c-0.9-9.5-1.6-24-2.1-37.9l-17.4,5c-1.5,5.4-3,10.4-4.1,15
		c-3.6,14.6-6.7,24.6-11.5,29.2c-5.8,5.6-12.4,4.3-14.6-4.1c-3.9-14.6,5.1-37.1,17.2-44.2l8.6-6c9.2-28.6,20.7-60.3,27.6-73.9
		c4.5-6.3,10.1-11.5,14.5-14.5C84.1,90,82,139.4,86.5,169.4z M42.6,152.6c-7.9,4.2-13.2,12.3-13.4,21.6c-0.1,7,3.7,9.6,9,3.1
		c3.1-4,5-10.6,7.2-17.5c0.9-2.8,1.6-6,2.5-9.1L42.6,152.6z M74.2,96.5C69,108.3,64.5,122,60,136.2l13-5.7
		c-0.1-14.1,0.5-23.7,1.7-33.8L74.2,96.5z"/>
	<path class="st0" d="M134.6,156c-5.7,1.8-5.9-11.8-3.6-20.9c1.4-5.5,1.9-10.8,2.8-17.2c1.1-7.7-5.1-1.4-6.8,2
		c-3.4,7-5.3,14-6.4,19.2c0,0-1,5.2-3.1,15c-3.3,2.2-7.7,4.5-10.1,5.3c5-27.3,5.6-34.7,5.6-34.7c0.7-7.4-1.4-7.2-4.5-3.5
		s-5.8,10.6-6.6,14.3c-1.7,9.8-3.5,15-4.8,22.5c-2.8,1.7-7.6,3.7-9.8,4.2l2.6-17.9l6.4-39.5c3.3-2,8.8-5.2,11.4-5.5l-3.8,18.8
		l0.2,0.1c3.9-4.5,6.9-11.7,12.7-17.1c6.2-6.1,8.9-2.4,8.3,10.9l0.2,0.3c9.4-10.8,13-19.8,18-17.7c5,2,1.3,13.3-0.5,22.6
		c-2.1,11.4-1.9,16.6-1.9,20.8c0.2,6.5,9.4-16.6,12.2-23.5l2.2,3C147.8,139,140,154.2,134.6,156z"/>
	<path class="st0" d="M174.6,141.2c-5.1,7.8-9.9,13-14.9,11.7c-5.8-1.6-10.1-4.5-10.1-24c-0.1-17.5,11-36.3,19-38.8
		c5.5-1.8,13.8,2.1,10.4,18.5c-3.5,16.4-10.9,18.3-18.7,20.7c-1.3,11.5,5.6,16,12.5,7c7-9.1,10.2-19,12.2-26.8l2.3,3.4
		C184.1,125.1,178.1,135.8,174.6,141.2z M166.6,103.1c-2.2,4.8-4.8,12.1-5.6,21.1c3,1.5,8.4-0.7,11-17.9
		C173.3,96.9,168.4,98.8,166.6,103.1z"/>
	<path class="st0" d="M201.4,140.1c-3.6,7.2-13,12.8-12.3,1.7c0.4-7,5.3-28.5,7.6-33.2l-7.9,3.9c-0.7,0.2-1.2,1.1-2.3,2.1
		c-0.8-0.2-2.2-0.9-2.2-0.9c0.6-3.5,0.9-4.3,0.8-7.7c-1.1-5.5-1.6-12.7,0.7-17.3c2.7-5.6,6.7-7.6,7.4-2.4c0.7,5.3,0.1,6.4-0.1,8.2
		c1.8-0.1,8-2.3,11.9-6.1c1.4,6,1.2,12.9,1.2,12.9c-7.6,12.2-6.9,24.9-6.3,28.8c1,6.1,7.3-12.6,12.4-24l2.2,3
		C210.3,120.2,201.4,140.1,201.4,140.1z"/>
	<g>
		<path class="st0" d="M222.2,125.5c-2.8,5.3-4.4,3-3.7-5.9c0.5-6.6,3.5-17.4,6.6-32.7c-2.1,0.9-6.9,2.8-9.9,5.1
			c-3,10.8-6.1,22.4-6.9,33.6c-0.7,12,3.3,20.6,7.8,17.5c4.3-3.1,11.5-17.8,16.5-37.1l-2.5-2C227.2,113.7,225,120.2,222.2,125.5z"/>
	</g>
	<path class="st0" d="M251.5,131.5c-4.9,7.1-10.2,12.1-14.5,10.9c-5.9-1.6-10.4-7.6-10.1-23c0.3-17.6,10.9-37.2,19-39.8
		c5.4-1.6,11.3,0.6,11.2,13c-2.5,2-7.1,5.1-9.3,5.8c1.4-7.9-2.1-8.5-4.4-4.6c-3.5,6.3-5.3,14.9-6,23.9c-1.1,11.6,5.7,17.3,12.7,8.2
		c6.9-9,11.1-21.8,12.5-26.7l2.2,2.8C262.2,111.5,255.8,125.4,251.5,131.5z"/>
	<path class="st0" d="M292.4,125.4c-3.2,5.9-5.7,8.4-7.5,8.9c-2.4,0.9-4.4-2.8-5.5-8.9c-5.9,12.6-12.7,14.8-17.3,12.2
		c-4.9-2.9-6-19.4-0.5-35.7c5.3-15.8,13.3-24.4,21.6-20.1c0.3-1.2,0.5-1.4,0.9-2.6l9.9-2.9c-2.6,9.3-3.9,20.5-4.9,28
		c-1.5,12.5,0.1,17.2,2.7,13.1c1.9-3.1,5.4-14.1,8.3-23.5l2.4,2.6C299.4,107.9,295.1,120.2,292.4,125.4z M274.6,91.3
		c-4.1,8.8-7.4,26.7-5.1,32.5c1.8,5,6.2,1.5,9.3-5.2c-0.2-4.6-0.1-9.9,0.7-15.1c0.6-4.5,1.4-12.1,2.8-17.5
		C280.1,85,277.4,85.3,274.6,91.3z"/>
	<path class="st0" d="M320.9,129.1c-4.9,4.2-9.4-1.4-6.5-16.8c1.8-9.6,3.4-19.6-0.7-14.2c-4.3,5.5-8.4,16.3-11.5,30
		c-2.9,2.5-6.2,3.8-8.4,4.3c0,0,2.1-13.8,8.8-56.7c4.1-1.9,8.8-3.3,11.7-3.9c-1,5-3.1,15.1-4.5,21.1l0.3,0.3
		c3.3-6.3,10-16.9,13-19.3c9.5-7.9,6,5.9,4.5,13.8c-1.4,7.8-3.4,18.8-2.7,24.6c0.8,6.3,9.4-16,12.2-23.9l2,3.3
		C335.5,103.8,325.8,124.9,320.9,129.1z"/>
	<path class="st0" d="M367,115c-3.2,5.9-5.7,8.4-7.5,8.9c-2.4,0.9-4.4-2.8-5.5-8.9c-5.9,12.6-12.7,14.8-17.3,12.2
		c-4.9-2.9-6-19.4-0.5-35.7c5.3-15.8,13.3-24.4,21.6-20.1c0.3-1.2,0.5-1.4,0.9-2.6l9.9-2.9c-2.6,9.3-3.8,20.5-4.8,28
		c-1.5,12.5,0.1,17.2,2.7,13.1c1.9-3.1,5.3-14.1,8.3-23.5l2.4,2.6C374,97.5,369.7,109.9,367,115z M349.2,80.9
		c-4.1,8.8-7.4,26.7-5.2,32.5c1.8,5,6.2,1.5,9.3-5.2c-0.2-4.6-0.2-9.9,0.7-15.1c0.6-4.5,1.4-12.1,2.8-17.5
		C354.7,74.6,352,74.9,349.2,80.9z"/>
</g>
<g>
	<path class="st0" d="M112.1,68.9l2.6-5.1l0.3,0c0.6,3,3.7,1,3.2-1.6c-0.5-2.8-4.7-1-7.1,1.6c-1.4,1.5-3.9,5.5-5,8.6
		c-0.8,2.4-1.5,5-1.9,7.8c-1.1,7.2,2.2,8.8,6.1,7c3-1.4,5.6-4.9,7.4-7.8l0.8,0.6c-2.5,4.3-5.4,7.3-8.3,8.9c-7.2,4-12.5,1.9-12.7-4
		c-0.1-3.9,1.2-8.4,3.2-12.6c1.8-3.8,5.1-8,7-9.9c5.4-5.3,12.1-5.5,12.5-1.9C120.5,64.6,116,72.3,112.1,68.9z"/>
	<path class="st0" d="M130.1,82.1c-1.4,1.7-2.5,2.4-3.2,2.6c-1,0.3-1.7-0.7-2-2.4c-2.6,3.6-5.4,4.3-7.2,3.6c-1.9-0.8-2-5.4,0.6-10
		c2.5-4.5,5.9-7,9.1-5.8c0.2-0.4,0.2-0.4,0.4-0.8l4-0.9c-1.3,2.6-2,5.8-2.6,7.9c-0.9,3.5-0.3,4.8,0.8,3.7c0.8-0.9,2.5-4,3.8-6.7
		l0.9,0.7C133.3,77.1,131.3,80.6,130.1,82.1z M123.8,72.7c-1.9,2.5-3.5,7.6-2.8,9.2c0.6,1.4,2.4,0.4,3.8-1.5c0-1.3,0.2-2.8,0.6-4.2
		c0.3-1.3,0.8-3.4,1.5-4.9C126.1,70.9,125,71,123.8,72.7z"/>
	<path class="st0" d="M145.8,60c0.2-2.1-1-2.6-2.9,0.3c-1.3,2-2.5,5.3-3.6,8.6c3-1.1,4.6-1.4,4.6-1.4c-0.3,1.3-0.6,2.4-1.7,3.9
		c-1.4,0.2-2.7,0.5-3.9,0.7c-1,3.3-2.1,6.6-3.1,9.8c-1.1,3.5-1.6,5-2.8,7c-1.1,1.7-3.2,3-5.4,1.2l-1.6-3.6l0.1-0.1
		c0.9,0.8,3,1.5,4.4-0.2c1.3-1.6,2.7-8.1,3.4-10.4c0.3-0.9,0.5-1.3,0.8-2.7c-0.7,0.2-1.3,0.4-2,0.6c0-0.4,0.1-1.1,0.3-1.7
		c0.8-0.4,1.6-0.8,2.4-1.2c1.6-5.1,2.6-8.5,5.1-11.7c3.5-4.6,6.5-4.8,8.1-4c0.7,0.3,1.5,1.6,1.3,3.3C148.5,58.9,147,59.8,145.8,60z"
		/>
	<path class="st0" d="M151.8,79.3c-2.2,2.3-4.3,3.7-6.2,3.4c-2.3-0.4-3.9-1.2-3.5-6.6c0.4-4.9,5.2-10.3,8.5-11
		c2.3-0.6,5.5,0.5,3.8,5.1c-1.8,4.6-4.8,5.2-8,6c-0.8,3.2,1.9,4.4,4.9,1.9c3-2.6,4.5-5.4,5.5-7.6l0.9,0.9
		C156,74.7,153.4,77.8,151.8,79.3z M149.4,68.7c-1,1.4-2.2,3.4-2.7,6c1.2,0.4,3.4-0.3,4.8-5.1C152.3,66.9,150.3,67.5,149.4,68.7z"/>
</g>
<g>
	<path class="st1" d="M203.6,45.8c3-1.3,6.3-1.8,9.5-1.1c-9,0.5-15.4,7.7-13.7,17.3c-1.6-14,15.5-21.7,25.1-11.3
		c-0.7-1-1.5-1.9-2.4-2.7c2-3.1,5.2-5.3,8.9-5.7c5.1-0.6,10.3,2.1,12.8,7.2c1.9,3.8,2.3,8,1.6,12c-3.7,21.7-37.3,28.9-48.5,9.3
		c-2.9-5.1-3.8-11.2-1.6-16.5C196.7,50.5,199.8,47.5,203.6,45.8L203.6,45.8z M221.3,39c2.1-0.8,4.4-1,6.6-0.8
		c-0.2,0.3-0.4,0.5-0.5,0.7c-1.2,1.4-2.9,2.5-4.8,2.9c-0.4,0.1-0.9,0.2-1.3,0.2C221.2,40.9,221.2,39.9,221.3,39L221.3,39z
		 M229.6,38.4c2.7,0.4,5.5,1.9,7.1,3.5c-3.2-1.1-6.7-0.9-9.8,0.4c0.3-0.3,0.6-0.6,0.9-0.9C228.6,40.6,229.2,39.5,229.6,38.4
		L229.6,38.4z"/>
	<path class="st2" d="M199.7,40.3c0.3-3.4,3.2-4.1,5.8-2.6c1,0.6,1.9,1.4,2.7,2.1c1.1,0.9,2.2,1.9,3.3,2.8c3.4,2.5,6.8,2.1,9.8,4.3
		c1.4-2.2,4.4-3.4,6.2-5.6c2-2.4,3-5.4,1.6-8.5c1,4.6-2.8,9.3-8.3,9.5c-0.2-4.1,0.4-6.1,3.1-9.6c0.8-1.1,1.6-2.2,1.7-3.4
		c0.1-0.8-0.1-1.7-0.8-2.2c-0.3-0.2-0.7-0.4-1.3-0.4c2.6,0.8,0.8,3.2-0.3,4.4c-2.1,2.4-4.5,4.6-5,9.3c-0.6-2.4-1.6-4.8-3.3-6.9
		c-0.4-0.5-0.9-1.2-1.6-1.2c-0.4,0-0.9,0.1-1.4,0.4c-0.5,0.3-1.5,1.3-1.5,2.4c0.2-1,0.9-1.7,1.6-2.1c1.6-1,2.6,0.1,1,1.4
		c-0.7,0.5-1.8,1-2.4,1c0.6,0.1,1,0.3,1.6,0.6c2.7,1.4,4.6,4.7,4.4,7.5c-0.1-0.8-0.3-1.3-0.5-1.5c-1.2,0.2-2.8-0.4-4.2-1.4
		c-2-1.4-4.4-3.6-6.9-4.3c-1.7-0.5-3.8-0.3-4.9,1.3C199.9,38.1,199.6,39.1,199.7,40.3L199.7,40.3z M198.8,43.8
		c3.5,2.6,8.6-1.3,14.1,0.1c-1-0.6-1.9-1.2-2.8-2C208.1,41.9,202,45.2,198.8,43.8L198.8,43.8z"/>
</g>
<g>
	<path class="st3" d="M95.3,167.8l1.4-0.2l-0.1,3.9l4.3-0.6l0.1-3.9l1.3-0.2l-0.2,10.1l-1.3,0.2l0.1-4.8l-4.3,0.6l-0.1,4.8l-1.4,0.2
		L95.3,167.8z"/>
	<path class="st3" d="M107.1,171.4c-0.2-1.5,0.2-2.8,1.1-4c1-1.2,2.2-1.9,3.8-2.1c1.5-0.2,2.8,0.1,3.9,1c1.1,0.9,1.8,2,2,3.4
		c0.2,1.5-0.2,2.9-1.1,4.1c-0.9,1.2-2.2,1.9-3.7,2.1c-1.5,0.2-2.8-0.1-4-1C107.9,174,107.3,172.9,107.1,171.4z M116.4,170
		c-0.1-1.1-0.6-1.9-1.4-2.5c-0.8-0.6-1.8-0.9-2.9-0.7c-1.2,0.1-2.1,0.7-2.8,1.5s-1,1.8-0.9,2.9c0.1,1.1,0.6,2,1.5,2.6
		s1.8,0.9,2.9,0.7c1.1-0.1,2-0.6,2.7-1.5C116.3,172,116.6,171.1,116.4,170z"/>
	<path class="st3" d="M124.9,163.5l3.4,7.2l3.4-8.1l2.2,10.2l-1.3,0.2l-1.3-6.1l-3,7l-3-6.4l-1.4,6.6l-1.4,0.2L124.9,163.5z"/>
	<path class="st3" d="M138.4,162.2l4.6-0.6l0,1.3l-3.3,0.4l-0.1,2.5l3.3-0.4l0,1.3l-3.3,0.4l-0.1,3.5l3.3-0.4v1.4l-4.7,0.6
		L138.4,162.2z"/>
	<path class="st3" d="M163.6,159.9l-0.2,1.6c-1-0.8-2-1.1-3.1-1c-1.1,0.1-2,0.6-2.7,1.5c-0.7,0.9-0.9,1.8-0.8,2.9
		c0.1,1.1,0.6,1.9,1.4,2.5c0.8,0.6,1.7,0.9,2.8,0.8c0.8-0.1,1.6-0.5,2.5-1.1l0,1.7c-0.8,0.5-1.5,0.8-2.2,0.9c-1.5,0.2-2.8-0.1-3.9-1
		c-1.1-0.9-1.8-2-2-3.5c-0.2-1.5,0.2-2.9,1.1-4s2.2-1.8,3.7-2C161.3,158.9,162.5,159.2,163.6,159.9z"/>
	<path class="st3" d="M168.3,163.5c-0.2-1.5,0.2-2.8,1.1-4c1-1.2,2.2-1.9,3.8-2.1c1.5-0.2,2.8,0.1,3.9,1c1.1,0.9,1.8,2,2,3.4
		c0.2,1.5-0.2,2.9-1.1,4.1c-0.9,1.2-2.2,1.9-3.7,2.1c-1.5,0.2-2.8-0.1-4-1C169.2,166.1,168.5,164.9,168.3,163.5z M177.7,162
		c-0.1-1.1-0.6-1.9-1.4-2.5c-0.8-0.6-1.8-0.9-2.9-0.7c-1.2,0.1-2.1,0.7-2.8,1.5s-1,1.8-0.9,2.9c0.1,1.1,0.6,2,1.5,2.6
		s1.8,0.9,2.9,0.7c1.1-0.1,2-0.6,2.7-1.5C177.5,164.1,177.8,163.1,177.7,162z"/>
	<path class="st3" d="M183.7,161.5c-0.2-1.5,0.2-2.8,1.1-4c1-1.2,2.2-1.9,3.8-2.1c1.5-0.2,2.8,0.1,3.9,1c1.1,0.9,1.8,2,2,3.4
		c0.2,1.5-0.2,2.9-1.1,4.1c-0.9,1.2-2.2,1.9-3.7,2.1c-1.5,0.2-2.8-0.1-4-1C184.6,164.1,183.9,162.9,183.7,161.5z M193.1,160
		c-0.1-1.1-0.6-1.9-1.4-2.5c-0.8-0.6-1.8-0.9-2.9-0.7c-1.2,0.1-2.1,0.7-2.8,1.5s-1,1.8-0.9,2.9c0.1,1.1,0.6,2,1.5,2.6
		s1.8,0.9,2.9,0.7c1.1-0.1,2-0.6,2.7-1.5C192.9,162.1,193.2,161.1,193.1,160z"/>
	<path class="st3" d="M199.6,154.3l1.3-0.2l-0.1,4l3.5-4.4l1.8-0.2l-4,5.2l5.1,4.7l-1.7,0.2l-4.7-4.3l-0.1,4.9l-1.3,0.2L199.6,154.3
		z"/>
	<path class="st3" d="M212.3,152.6l1.3-0.2l-0.2,10.1l-1.3,0.2L212.3,152.6z"/>
	<path class="st3" d="M219.5,151.2l6.6,6.8l0.2-7.2l1.3-0.2l-0.2,10.4l-6.7-6.8l-0.1,7.3l-1.3,0.2L219.5,151.2z"/>
	<path class="st3" d="M241.3,150.4l-0.9,1.1c-0.5-0.4-1-0.7-1.6-0.9c-0.6-0.2-1.2-0.2-1.8-0.1c-1.1,0.1-2,0.7-2.7,1.6
		c-0.7,0.9-1,2-0.8,3.1c0.1,1,0.6,1.9,1.3,2.4c0.7,0.6,1.6,0.8,2.5,0.7c1.4-0.2,2.4-0.9,3-2.2l-2.5,0.3l-0.2-1.3l4.4-0.6
		c0,1.4-0.5,2.6-1.3,3.5s-1.9,1.5-3.2,1.7c-1.4,0.2-2.6-0.1-3.6-1c-1-0.8-1.6-2-1.8-3.4c-0.2-1.5,0.2-2.8,1.1-4
		c0.9-1.3,2.2-2,3.8-2.2c0.8-0.1,1.5,0,2.3,0.2C240,149.5,240.7,149.9,241.3,150.4z"/>
</g>
</svg>
