<?xml version="1.0" standalone="no"?>
<!DOCTYPE svg PUBLIC "-//W3C//DTD SVG 20010904//EN"
 "http://www.w3.org/TR/2001/REC-SVG-20010904/DTD/svg10.dtd">
<svg version="1.0" xmlns="http://www.w3.org/2000/svg"
 width="301.000000pt" height="301.000000pt" viewBox="0 0 301.000000 301.000000"
 preserveAspectRatio="xMidYMid meet">
<metadata>
Created by potrace 1.11, written by Peter Selinger 2001-2013
</metadata>
<g transform="translate(0.000000,301.000000) scale(0.100000,-0.100000)"
fill="#000000" stroke="none">
<path d="M502 2890 c-96 -22 -132 -135 -70 -221 17 -24 34 -46 37 -49 4 -3 29
-32 56 -65 28 -33 52 -62 55 -65 32 -32 250 -300 250 -308 0 -6 -4 -12 -9 -14
-16 -6 -123 -162 -156 -228 -152 -305 -152 -668 0 -972 59 -117 110 -186 214
-288 206 -203 448 -304 741 -309 449 -9 865 277 1024 703 84 223 88 511 10
728 -203 567 -792 861 -1361 679 -71 -23 -166 -66 -205 -93 -14 -10 -31 -18
-36 -18 -6 0 -39 34 -74 76 -34 42 -75 90 -90 107 -16 18 -79 93 -140 168
-137 166 -168 187 -246 169z m84 -112 c7 -24 -18 -64 -45 -71 -33 -8 -63 20
-59 56 5 57 87 69 104 15z"/>
</g>
</svg>
